<svg width="24" height="25" viewBox="0 0 24 25" fill="none" xmlns="http://www.w3.org/2000/svg">
<path d="M8.99149 19.9763V17.2162C8.99148 16.5142 9.56381 15.9438 10.2729 15.9391H12.8704C13.5829 15.9391 14.1605 16.5109 14.1605 17.2162V17.2162V19.9849C14.1603 20.5809 14.6408 21.0681 15.2427 21.082H16.9744C18.7006 21.082 20.1 19.6966 20.1 17.9877V17.9877V10.1361C20.0908 9.46378 19.7719 8.83245 19.2342 8.42176L13.3119 3.6988C12.2744 2.87644 10.7996 2.87644 9.76208 3.6988L3.86582 8.43033C3.32603 8.83935 3.00665 9.47173 3 10.1447V17.9877C3 19.6966 4.39939 21.082 6.12562 21.082H7.85727C8.47412 21.082 8.97418 20.587 8.97418 19.9763V19.9763" stroke="#094BA4" stroke-width="1.5" stroke-linecap="round" stroke-linejoin="round"/>
</svg>
