<svg width="20" height="20" viewBox="0 0 20 20" fill="none" xmlns="http://www.w3.org/2000/svg">
<g clip-path="url(#clip0_1713_107379)">
<path d="M17.8098 19.9983C16.4549 19.9983 15.1001 19.9983 13.7501 19.9983C13.7501 17.7092 13.7501 15.4201 13.7501 13.1213C14.3321 13.1213 14.88 13.1164 15.4327 13.1262C15.5843 13.1311 15.6479 13.0773 15.6968 12.9452C16.0489 12.0501 16.406 11.1599 16.7631 10.2648C16.7973 10.1817 16.8266 10.0985 16.8707 9.99582C15.8142 9.99582 14.7919 9.99582 13.7501 9.99582C13.7501 9.41377 13.7501 8.85129 13.7501 8.28391C13.7501 8.00512 13.7403 7.72143 13.755 7.44263C13.7697 7.11003 13.9115 6.9633 14.2392 6.9046C14.3517 6.88504 14.4691 6.87526 14.5865 6.87526C15.0365 6.87036 15.4865 6.87526 15.9316 6.87526C16.0343 6.87526 16.1321 6.87526 16.2299 6.87526C16.2299 5.81876 16.2299 4.78672 16.2299 3.75958C15.3104 3.75958 14.4055 3.75469 13.5006 3.76447C13.3001 3.76447 13.0996 3.8036 12.9039 3.85251C11.1333 4.29272 10.0035 5.75029 9.99856 7.57469C9.99856 8.30837 9.99856 9.04694 9.99856 9.78061C9.99856 9.84909 9.99856 9.91756 9.99856 10.0105C9.15239 10.0105 8.33067 10.0105 7.50896 10.0105C7.50896 11.0572 7.50896 12.0844 7.50896 13.1311C8.34046 13.1311 9.16217 13.1311 9.99856 13.1311C9.99856 15.4348 9.99856 17.719 9.99856 20.0032C7.39646 20.0032 4.78947 20.0032 2.18736 20.0032C2.17269 19.9934 2.15802 19.9738 2.13845 19.9738C1.04283 19.8418 -0.0136633 18.844 -0.00877215 17.3619C0.0107925 12.4561 -0.00388097 7.54535 0.0010102 2.6395C0.0010102 2.41451 0.0156837 2.17973 0.0645954 1.96452C0.338501 0.775964 1.32652 0.00804995 2.57377 0.00804995C6.59431 -0.0017324 10.61 -0.0017324 14.6207 -0.0017324C15.5794 -0.0017324 16.5332 -0.00662357 17.4918 -0.0017324C18.5875 0.00804995 19.5168 0.67814 19.8641 1.7004C19.9179 1.85691 19.9521 2.02321 19.9961 2.18462C19.9961 7.39372 19.9961 12.6028 19.9961 17.8119C19.9863 17.8413 19.9668 17.8657 19.9619 17.9C19.7809 18.8733 19.2135 19.5287 18.2891 19.8711C18.1375 19.9249 17.9712 19.9591 17.8098 19.9983Z" fill="#094BA4"/>
</g>
<defs>
<clipPath id="clip0_1713_107379">
<rect width="20.0049" height="20" fill="white" transform="translate(-0.00390625)"/>
</clipPath>
</defs>
</svg>
