<svg width="20" height="20" viewBox="0 0 20 20" fill="none" xmlns="http://www.w3.org/2000/svg">
<g clip-path="url(#clip0_1713_107390)">
<path d="M0.000976562 18.125C0.000976562 12.7083 0.000976562 7.29167 0.000976562 1.875C0.0113932 1.84375 0.0322266 1.81771 0.0374349 1.78646C0.14681 1.1875 0.443685 0.697917 0.954102 0.380208C1.23535 0.208333 1.56868 0.125 1.87598 0C7.29264 0 12.7093 0 18.126 0C18.1624 0.0104167 18.1937 0.03125 18.2301 0.0364583C18.8708 0.166667 19.3708 0.5 19.6885 1.06771C19.8291 1.31771 19.8968 1.60417 19.9958 1.875C19.9958 7.29167 19.9958 12.7083 19.9958 18.125C19.9854 18.1615 19.9645 18.1927 19.9593 18.2292C19.8239 18.8906 19.4749 19.401 18.8812 19.7188C18.6468 19.8438 18.376 19.9062 18.126 19.9948C12.7093 19.9948 7.29264 19.9948 1.87598 19.9948C1.83952 19.9844 1.80827 19.9635 1.77181 19.9583C1.1416 19.8333 0.641602 19.5052 0.323893 18.9427C0.172852 18.6979 0.105143 18.401 0.000976562 18.125ZM9.92806 16.4844C9.92806 16.4792 9.92806 16.4688 9.92806 16.4635C10.2718 16.4635 10.6208 16.474 10.9645 16.4635C11.7197 16.4375 12.4749 16.4375 13.2249 16.3646C14.6989 16.2135 15.8239 15.2604 16.1885 13.8385C16.3187 13.3281 16.3708 12.7865 16.376 12.2552C16.3812 10.4635 16.376 8.67708 16.3239 6.88542C16.3031 6.13021 16.027 5.4375 15.5374 4.84375C14.8239 3.97917 13.8656 3.59896 12.7874 3.57292C10.8812 3.53646 8.97493 3.55208 7.06868 3.56771C6.52181 3.57292 5.98535 3.70312 5.48535 3.94271C4.22494 4.55208 3.58431 5.60937 3.53223 6.96354C3.45931 8.85417 3.48535 10.75 3.49056 12.6458C3.49056 13.3594 3.63639 14.0573 4.00098 14.6875C4.66244 15.8229 5.70931 16.3333 6.97493 16.4062C7.95931 16.4583 8.94368 16.4583 9.92806 16.4844Z" fill="#094BA4"/>
<path d="M15.1989 9.98828C15.1989 10.8737 15.2093 11.7591 15.1937 12.6445C15.1885 12.9466 15.1416 13.2539 15.0635 13.5508C14.7979 14.5143 14.1364 15.0664 13.1676 15.1914C12.4541 15.2799 11.7301 15.2956 11.0062 15.3008C9.83431 15.3112 8.66244 15.3008 7.49056 15.2695C7.09994 15.2591 6.69369 15.2122 6.31869 15.1081C5.40202 14.8477 4.87598 14.1966 4.74056 13.2695C4.65723 12.7174 4.63639 12.1549 4.63118 11.5977C4.62598 10.2227 4.63639 8.85287 4.66243 7.47787C4.66764 7.14453 4.70931 6.80078 4.79264 6.47266C5.03223 5.50391 5.76139 4.87891 6.79264 4.77474C7.43848 4.71224 8.08952 4.69141 8.74056 4.69141C10.0635 4.69141 11.3812 4.70182 12.7041 4.73307C13.4541 4.75391 14.1416 4.97266 14.6416 5.58203C15.0479 6.08203 15.1833 6.67578 15.1937 7.29557C15.2093 8.19141 15.1937 9.08724 15.1989 9.98828ZM13.251 9.99349C13.2562 8.14974 11.777 6.66536 9.93327 6.66016C8.10514 6.65495 6.61035 8.13932 6.60514 9.96745C6.59994 11.8112 8.08431 13.306 9.91764 13.3112C11.7562 13.3216 13.2458 11.832 13.251 9.99349ZM12.6104 6.53516C12.6104 6.97266 12.9593 7.3112 13.3968 7.30599C13.8187 7.30078 14.1624 6.95182 14.1572 6.52474C14.152 6.09766 13.8083 5.75391 13.3864 5.75391C12.9593 5.7487 12.6104 6.09766 12.6104 6.53516Z" fill="#094BA4"/>
<path d="M12.0841 9.97935C12.0893 11.1721 11.1257 12.146 9.93303 12.146C8.75074 12.146 7.78199 11.1877 7.77157 10.0054C7.76115 8.80748 8.70907 7.84394 9.91219 7.82831C11.0997 7.81269 12.0737 8.78144 12.0841 9.97935Z" fill="#094BA4"/>
</g>
<defs>
<clipPath id="clip0_1713_107390">
<rect width="20" height="20" fill="white" transform="translate(0.000976562)"/>
</clipPath>
</defs>
</svg>
