<svg width="21" height="22" viewBox="0 0 21 22" fill="none" xmlns="http://www.w3.org/2000/svg">
<path d="M17.2871 18.0724H14.2801V13.3634C14.2801 12.2404 14.2601 10.7954 12.7161 10.7954C11.1501 10.7954 10.9101 12.0184 10.9101 13.2824V18.0724H7.90409V8.38839H10.7911V9.71139H10.8311C11.4201 8.70539 12.5141 8.10439 13.6791 8.14739C16.7271 8.14739 17.2881 10.1524 17.2881 12.7594L17.2871 18.0724ZM4.51109 7.06439C3.54709 7.06439 2.76609 6.28339 2.76609 5.31939C2.76609 4.35539 3.54709 3.57439 4.51109 3.57439C5.47509 3.57439 6.25609 4.35539 6.25609 5.31939C6.25609 6.28339 5.47509 7.06439 4.51109 7.06439ZM6.01409 18.0724H3.00409V8.38839H6.01409V18.0724ZM18.7861 0.782387H1.49309C0.676094 0.773387 0.00609375 1.42839 -0.00390625 2.24539V19.6094C0.00609375 20.4274 0.676094 21.0824 1.49309 21.0734H18.7861C19.6051 21.0834 20.2781 20.4284 20.2891 19.6094V2.24439C20.2771 1.42539 19.6041 0.770387 18.7861 0.781387" fill="#094BA4"/>
</svg>
