<svg width="20" height="20" viewBox="0 0 20 20" fill="none" xmlns="http://www.w3.org/2000/svg">
<rect x="0.000976562" width="20" height="20" rx="2" fill="#094BA4"/>
<path d="M16.001 9.14444V7.04978C14.8926 7.04978 14.0468 6.78795 13.501 6.27904C12.9408 5.69823 12.6269 4.96271 12.6135 4.19914V4.04794L10.376 4V12.5077C10.2992 12.8789 10.0956 13.2203 9.7927 13.4858C9.48977 13.7514 9.10207 13.9283 8.68195 13.9926C8.26183 14.057 7.82952 14.0057 7.44337 13.8457C7.05723 13.6857 6.73584 13.4247 6.52261 13.0979C6.30937 12.7711 6.21455 12.3943 6.25095 12.0183C6.28735 11.6424 6.45321 11.2853 6.72614 10.9954C6.99908 10.7055 7.36594 10.4967 7.77721 10.3972C8.18848 10.2976 8.62435 10.3122 9.02598 10.4388V8.41057C8.79181 8.37661 8.55494 8.35935 8.31764 8.35894C7.46389 8.35894 6.62931 8.58301 5.91943 9.00282C5.20956 9.42262 4.65628 10.0193 4.32957 10.7174C4.00285 11.4155 3.91736 12.1837 4.08392 12.9248C4.25048 13.6659 4.6616 14.3467 5.2653 14.881C5.869 15.4153 6.63815 15.7792 7.4755 15.9266C8.31286 16.074 9.18079 15.9983 9.96956 15.7092C10.7583 15.42 11.4325 14.9303 11.9068 14.302C12.3811 13.6738 12.6343 12.9351 12.6343 12.1795C12.6338 12.0229 12.6227 11.8665 12.601 11.7111V8.33682C13.6184 8.89918 14.8021 9.18036 16.001 9.14444Z" fill="#FCFBF7"/>
</svg>
