<svg width="20" height="20" viewBox="0 0 20 20" fill="none" xmlns="http://www.w3.org/2000/svg">
<g clip-path="url(#clip0_1713_107395)">
<rect x="-0.00683594" width="20" height="20" rx="2" fill="#094BA4"/>
<rect x="0.993164" y="3" width="18" height="15" rx="2" fill="#F8FAFC"/>
<path d="M11.6077 20C10.5244 20 9.44629 20 8.36296 20C8.28483 19.9896 8.21191 19.974 8.13379 19.9688C6.60254 19.8646 5.07129 19.776 3.54525 19.6458C1.99316 19.5104 0.628581 18.2656 0.409831 16.7292C0.237956 15.5104 0.185872 14.2708 0.0869141 13.0417C0.0504557 12.5521 0.0348307 12.0573 0.00878906 11.5625C0.00878906 10.5208 0.00878906 9.47917 0.00878906 8.4375C0.0192057 8.34896 0.0348307 8.26042 0.0400391 8.16667C0.144206 6.625 0.232747 5.07812 0.362956 3.53646C0.498372 1.98438 1.74316 0.619792 3.27962 0.401042C4.49316 0.229167 5.72233 0.177083 6.94629 0.078125C7.44629 0.0364583 7.94629 0.0260417 8.44108 0C9.48275 0 10.5244 0 11.5661 0C11.6494 0.0104167 11.7327 0.0260417 11.8161 0.03125C13.3682 0.135417 14.915 0.223958 16.4619 0.354167C18.0088 0.484375 19.3786 1.72917 19.5973 3.27083C19.7692 4.48438 19.8213 5.71354 19.9202 6.9375C19.9619 7.4375 19.9723 7.93229 19.9984 8.43229C19.9984 9.46354 19.9984 10.4896 19.9984 11.5208C19.988 11.6302 19.9723 11.7396 19.9671 11.849C19.863 13.3802 19.7796 14.9115 19.6442 16.4375C19.5036 18.0208 18.2692 19.375 16.7067 19.599C15.5036 19.7708 14.29 19.8229 13.0765 19.9167C12.5921 19.9583 12.0973 19.974 11.6077 20ZM10.0765 5.38021C8.68587 5.46875 7.35775 5.54688 6.03483 5.63542C5.54525 5.66667 5.09733 5.83333 4.7015 6.13021C4.33691 6.40625 4.08691 6.75 4.00358 7.21354C3.67546 9.07812 3.67546 10.9375 4.00879 12.8021C4.08171 13.2031 4.27962 13.5156 4.5765 13.7708C4.88379 14.0365 5.23275 14.2292 5.63379 14.2865C6.23796 14.375 6.84733 14.4375 7.45671 14.4792C9.62858 14.6302 11.8005 14.5781 13.9671 14.3646C14.5817 14.3021 15.1286 14.0885 15.5713 13.6406C15.7848 13.4219 15.9359 13.1719 15.9932 12.8646C16.3421 11.0052 16.3421 9.14062 16.0296 7.27604C15.9515 6.80729 15.7275 6.4375 15.3577 6.15104C15.0088 5.88542 14.6182 5.69792 14.1859 5.66146C12.79 5.55729 11.3994 5.46875 10.0765 5.38021Z" fill="#094BA4"/>
<path d="M12.4098 9.9987C11.1025 10.8008 9.82129 11.5872 8.52441 12.3841C8.52441 10.7852 8.52441 9.21745 8.52441 7.61328C9.81608 8.40495 11.0973 9.19141 12.4098 9.9987Z" fill="#094BA4"/>
</g>
<defs>
<clipPath id="clip0_1713_107395">
<rect width="20" height="20" fill="white" transform="translate(0.000976562)"/>
</clipPath>
</defs>
</svg>
