<svg width="143" height="48" viewBox="0 0 143 48" fill="none" xmlns="http://www.w3.org/2000/svg">
<path d="M143 7.14108V39.8815C143 43.8253 140.482 47.0211 137.351 47.0211H104.34C99.2357 28.934 99.6441 12.7848 101.856 0.035425H137.351C140.482 0.00142667 143 3.19727 143 7.14108Z" fill="#EFEFEF"/>
<path d="M104.34 46.9857H5.64922C2.51832 46.9857 0 43.7899 0 39.8461V7.13965C0 3.19584 2.51832 0 5.64922 0H101.89C99.644 12.7834 99.2696 28.9326 104.34 46.9857Z" fill="#ECB800"/>
<path d="M26.8508 27.7762C26.2723 28.1502 25.5576 28.4562 24.6388 28.6942C23.7199 28.9322 22.8011 29.0682 21.8822 29.0682C20.4529 29.0682 19.2278 28.7622 18.1728 28.2182C17.1519 27.6402 16.3351 26.8583 15.7566 25.8383C15.178 24.8184 14.8718 23.5944 14.8718 22.2005C14.8718 20.7726 15.144 19.4806 15.7225 18.4267C16.267 17.3727 17.0498 16.5568 18.0367 15.9448C19.0236 15.3668 20.2147 15.0608 21.5079 15.0608C22.4948 15.0608 23.5157 15.2648 24.5026 15.6388C25.4555 16.0128 26.2042 16.4888 26.7147 17.0667L27.055 17.4407L27.4974 17.2027C27.9739 16.9308 28.4163 16.5228 28.7566 16.0128C29.0969 15.4688 29.267 14.9588 29.267 14.4489C29.267 13.6329 28.8587 12.9189 28.0419 12.307C27.3273 11.763 26.4084 11.321 25.2854 11.015C24.1623 10.7091 22.9372 10.5391 21.61 10.5391C19.2958 10.5391 17.2199 11.049 15.4503 12.001C13.6807 12.9869 12.2854 14.3809 11.2985 16.1148C10.3796 17.8487 9.86914 19.8886 9.86914 22.1665C9.86914 24.4104 10.3796 26.4163 11.3665 28.1162C12.3534 29.8161 13.7487 31.1761 15.5184 32.162C17.254 33.114 19.2958 33.6239 21.5759 33.6239C23.0393 33.6239 24.4686 33.454 25.8299 33.08C27.2252 32.706 28.3482 32.196 29.199 31.584L29.6754 31.2441L27.3953 27.4362L26.8508 27.7762Z" fill="white"/>
<path d="M43.322 17.3407C41.9607 16.5927 40.4293 16.2188 38.7618 16.2188C37.0942 16.2188 35.5628 16.5927 34.2016 17.3407C32.8744 18.0887 31.7853 19.1426 31.0026 20.4345C30.2199 21.7265 29.8115 23.2224 29.8115 24.8543C29.8115 26.4862 30.2199 27.9482 31.0026 29.2741C31.7853 30.5661 32.8744 31.62 34.2016 32.368C35.5288 33.1159 37.0602 33.4899 38.7618 33.4899C40.4293 33.4899 41.9607 33.1159 43.322 32.368C44.6833 31.62 45.7382 30.5661 46.5209 29.2741C47.3037 27.9822 47.712 26.4862 47.712 24.8543C47.712 23.2224 47.3037 21.7605 46.5209 20.4345C45.7382 19.1426 44.6833 18.0887 43.322 17.3407ZM40.8717 28.6621C40.2592 29.0361 39.5445 29.2061 38.7618 29.2061C37.9791 29.2061 37.2644 29.0361 36.6518 28.6621C36.0393 28.2882 35.5628 27.8122 35.2225 27.1322C34.8822 26.4863 34.678 25.7043 34.678 24.8543C34.678 24.0044 34.8482 23.2224 35.2225 22.5764C35.5628 21.9305 36.0393 21.4205 36.6518 21.0465C37.2644 20.6725 37.9791 20.5025 38.7618 20.5025C39.5445 20.5025 40.2592 20.6725 40.8717 21.0465C41.4843 21.4205 41.9607 21.8965 42.3011 22.5764C42.6414 23.2224 42.8456 24.0044 42.8456 24.8543C42.8456 25.7043 42.6754 26.4863 42.3011 27.1322C41.9607 27.7782 41.4843 28.2882 40.8717 28.6621Z" fill="white"/>
<path d="M62.0057 17.9515C60.5424 16.7956 58.3984 16.1836 55.6078 16.1836C53.8382 16.1836 52.545 16.3876 51.5921 16.8636C50.2309 17.5095 49.9586 18.4275 49.9586 19.0735C49.9586 19.5154 50.0607 19.9234 50.2649 20.2974C50.4691 20.6714 50.7413 20.9774 51.0136 21.1814L51.422 21.4873L51.7963 21.1474C51.9665 20.9774 52.3748 20.7394 53.2256 20.5354C53.9403 20.3314 54.757 20.2634 55.6419 20.2634C57.0031 20.2634 57.99 20.5014 58.6366 20.9774C59.079 21.3173 59.3513 21.7933 59.4534 22.4393C59.1471 22.4053 58.8068 22.4053 58.4324 22.3713C57.6837 22.3373 57.0371 22.3033 56.4246 22.3033C53.7021 22.3033 51.7623 22.7453 50.5031 23.6972C49.2099 24.6492 48.5293 26.0431 48.5293 27.845C48.5293 29.8509 49.312 31.3129 50.8094 32.2308C52.2387 33.0808 54.2466 33.4888 56.867 33.4888C57.8539 33.4888 59.011 33.4548 60.2361 33.3528C61.4612 33.2508 62.6183 33.1488 63.6733 33.0128L64.2178 32.9448V23.2553C64.2858 20.9434 63.5371 19.1415 62.0057 17.9515ZM56.9351 29.7149C55.5738 29.7149 54.5869 29.5449 54.0084 29.239C53.5319 28.967 53.2937 28.559 53.2937 27.947C53.2937 27.3011 53.4979 26.8591 53.9063 26.5191C54.2125 26.2811 54.9612 26.0091 56.5947 26.0091C57.1052 26.0091 57.7518 26.0431 58.4324 26.0771C58.8748 26.1111 59.2492 26.1451 59.5895 26.2131V29.5789C59.3513 29.6129 59.045 29.6469 58.7047 29.6809C58.1262 29.6809 57.5136 29.7149 56.9351 29.7149Z" fill="white"/>
<path d="M78.613 28.2202C77.592 28.8321 76.4349 29.1721 75.1758 29.1721C73.8145 29.1721 72.7596 28.7981 71.9768 28.0162C71.1941 27.2342 70.8198 26.1803 70.8198 24.8203C70.8198 23.4264 71.1941 22.3724 71.9768 21.6245C72.7596 20.8765 73.7465 20.5025 75.0737 20.5025C75.7884 20.5025 76.503 20.6045 77.1496 20.8425C77.7962 21.0805 78.3407 21.3865 78.7491 21.7945L79.1575 22.1685L79.5658 21.8285C79.9742 21.4885 80.3145 21.1485 80.5868 20.7405C80.859 20.2986 80.9952 19.8566 80.9952 19.4146C80.9952 18.7686 80.6889 18.1907 80.1103 17.6807C79.5999 17.2047 78.8852 16.8307 77.9664 16.5927C77.0815 16.3547 76.1287 16.2188 75.0737 16.2188C73.236 16.2188 71.6025 16.5927 70.2412 17.3067C68.88 18.0547 67.791 19.0746 67.0763 20.4005C66.3617 21.6925 65.9873 23.2224 65.9873 24.9223C65.9873 26.6222 66.3617 28.1522 67.1103 29.4441C67.859 30.736 68.914 31.756 70.2412 32.436C71.5685 33.1499 73.0999 33.4899 74.8355 33.4899C77.0135 33.4899 78.9873 32.9459 80.7569 31.892L81.2674 31.586L79.1575 27.8802L78.613 28.2202Z" fill="white"/>
<path d="M90.7962 16.2184C89.6391 16.2184 88.5842 16.4224 87.6653 16.7623C87.2229 16.9323 86.7805 17.1703 86.4061 17.4083V10.1327L86.0658 9.96267C85.8276 9.82667 85.5213 9.72468 85.147 9.65668C84.8067 9.58869 84.4664 9.55469 84.1601 9.55469C83.4794 9.55469 82.9009 9.72468 82.4245 10.0987C82.0842 10.3706 81.6758 10.8806 81.6758 11.7986V33.0815H86.3721V24.344C86.3721 23.086 86.6784 22.2021 87.325 21.5561C87.9716 20.9101 88.8564 20.6041 90.0135 20.6041C91.0685 20.6041 91.8171 20.8761 92.2596 21.3861C92.736 21.9301 92.9402 22.814 92.9402 24.038V33.0815H97.6365V22.984C97.6365 20.9101 97.0239 19.2442 95.7988 18.0203C94.6417 16.8303 92.9402 16.2184 90.7962 16.2184Z" fill="white"/>
<path d="M106.96 16.7309C106.62 16.6629 106.28 16.6289 105.974 16.6289C105.293 16.6289 104.714 16.7989 104.238 17.1729C103.898 17.4449 103.489 17.9548 103.489 18.8728V33.0841H108.186V17.2069L107.845 17.0369C107.641 16.9009 107.335 16.7989 106.96 16.7309Z" fill="#094BA4"/>
<path d="M105.838 9.82812C105.055 9.82812 104.408 10.1001 103.898 10.6101C103.387 11.1201 103.115 11.8 103.115 12.548C103.115 13.33 103.387 13.9759 103.898 14.4859C104.408 14.9959 105.055 15.2679 105.838 15.2679C106.62 15.2679 107.267 14.9959 107.778 14.4859C108.288 13.9759 108.56 13.296 108.56 12.548C108.56 11.766 108.288 11.1201 107.778 10.6101C107.267 10.1001 106.62 9.82812 105.838 9.82812Z" fill="#094BA4"/>
<path d="M122.785 17.0687C121.594 16.4907 120.198 16.2188 118.633 16.2188C117.068 16.2188 115.672 16.5247 114.481 17.0687C113.256 17.6467 112.303 18.4966 111.623 19.5506C110.942 20.6045 110.602 21.8625 110.602 23.2564V33.0479H115.298V24.1404C115.298 21.6585 116.319 20.5705 118.599 20.5705C119.722 20.5705 120.539 20.8425 121.083 21.4545C121.628 22.0325 121.9 22.9504 121.9 24.1404V33.0479H126.596V23.2564C126.596 21.8625 126.256 20.6045 125.575 19.5506C124.963 18.4966 124.01 17.6467 122.785 17.0687Z" fill="#094BA4"/>
<path d="M132.552 16.7309C132.212 16.6629 131.872 16.6289 131.565 16.6289C130.885 16.6289 130.306 16.7989 129.83 17.1729C129.489 17.4449 129.081 17.9548 129.081 18.8728V33.0841H133.777V17.2069L133.437 17.0369C133.233 16.9009 132.927 16.7989 132.552 16.7309Z" fill="#094BA4"/>
<path d="M131.43 15.3343C132.212 15.3343 132.859 15.0623 133.369 14.5523C133.88 14.0423 134.152 13.3624 134.152 12.6144C134.152 11.8324 133.88 11.1865 133.369 10.6765C132.859 10.1325 132.212 9.89453 131.43 9.89453C130.647 9.89453 130 10.1665 129.49 10.6765C128.979 11.1865 128.707 11.8664 128.707 12.6144C128.707 13.3964 128.979 14.0423 129.49 14.5523C130 15.0623 130.647 15.3343 131.43 15.3343Z" fill="#094BA4"/>
</svg>
