<svg width="19" height="18" viewBox="0 0 19 18" fill="none" xmlns="http://www.w3.org/2000/svg">
<path fill-rule="evenodd" clip-rule="evenodd" d="M9.1658 10.0972C8.66405 10.0972 8.1638 9.9314 7.7453 9.5999L4.38155 6.8879C4.1393 6.6929 4.1018 6.33815 4.29605 6.09665C4.4918 5.8559 4.8458 5.81765 5.0873 6.0119L8.44805 8.7209C8.8703 9.0554 9.46505 9.0554 9.8903 8.7179L13.2173 6.0134C13.4588 5.81615 13.8128 5.85365 14.0093 6.09515C14.2051 6.3359 14.1683 6.6899 13.9276 6.8864L10.5946 9.5954C10.1731 9.9299 9.66905 10.0972 9.1658 10.0972Z" fill="#334155"/>
<mask id="mask0_1713_107368" style="mask-type:luminance" maskUnits="userSpaceOnUse" x="1" y="1" width="17" height="16">
<path fill-rule="evenodd" clip-rule="evenodd" d="M1.08398 1.5H17.2089V16.125H1.08398V1.5Z" fill="white"/>
</mask>
<g mask="url(#mask0_1713_107368)">
<path fill-rule="evenodd" clip-rule="evenodd" d="M5.46323 15H12.8282C12.8297 14.9985 12.8357 15 12.8402 15C13.696 15 14.455 14.694 15.037 14.1128C15.7127 13.44 16.084 12.4732 16.084 11.391V6.24C16.084 4.14525 14.7145 2.625 12.8282 2.625H5.46473C3.57848 2.625 2.20898 4.14525 2.20898 6.24V11.391C2.20898 12.4732 2.58098 13.44 3.25598 14.1128C3.83798 14.694 4.59773 15 5.45273 15H5.46323ZM5.45048 16.125C4.29323 16.125 3.25973 15.705 2.46173 14.91C1.57298 14.0235 1.08398 12.774 1.08398 11.391V6.24C1.08398 3.53775 2.96723 1.5 5.46473 1.5H12.8282C15.3257 1.5 17.209 3.53775 17.209 6.24V11.391C17.209 12.774 16.72 14.0235 15.8312 14.91C15.034 15.7042 13.9997 16.125 12.8402 16.125H12.8282H5.46473H5.45048Z" fill="#334155"/>
</g>
</svg>
