<svg width="18" height="18" viewBox="0 0 18 18" fill="none" xmlns="http://www.w3.org/2000/svg">
<mask id="mask0_1713_107359" style="mask-type:luminance" maskUnits="userSpaceOnUse" x="1" y="1" width="16" height="16">
<path fill-rule="evenodd" clip-rule="evenodd" d="M1.5 1.5H16.8747V16.8746H1.5V1.5Z" fill="white"/>
</mask>
<g mask="url(#mask0_1713_107359)">
<path fill-rule="evenodd" clip-rule="evenodd" d="M3.26931 3.79586C3.27081 3.79586 3.23331 3.83486 3.18606 3.88136C3.00456 4.05761 2.62881 4.42436 2.62506 5.19161C2.61906 6.26486 3.32481 8.25761 6.72306 11.6551C10.1056 15.0361 12.0953 15.7501 13.1708 15.7501H13.1866C13.9538 15.7464 14.3198 15.3699 14.4968 15.1891C14.5508 15.1336 14.5943 15.0931 14.6251 15.0676C15.3721 14.3161 15.7546 13.7566 15.7508 13.3981C15.7456 13.0321 15.2903 12.5994 14.6611 12.0009C14.4608 11.8104 14.2433 11.6034 14.0138 11.3739C13.4191 10.7806 13.1243 10.8819 12.4763 11.1099C11.5801 11.4241 10.3501 11.8516 8.43906 9.93987C6.52506 8.02737 6.95331 6.79886 7.26681 5.90262C7.49331 5.25461 7.59681 4.95912 7.00131 4.36362C6.76806 4.13111 6.55881 3.91061 6.36606 3.70811C5.77131 3.08261 5.34231 2.63036 4.97856 2.62511H4.97256C4.61331 2.62511 4.05531 3.00911 3.26556 3.79887C3.26781 3.79661 3.26856 3.79586 3.26931 3.79586ZM13.1716 16.8751C11.3026 16.8751 8.86581 15.3871 5.92806 12.4509C2.97906 9.50261 1.48881 7.05837 1.50006 5.18562C1.50681 3.94812 2.15556 3.31437 2.39931 3.07661C2.41206 3.06086 2.45556 3.01811 2.47056 3.00311C3.54606 1.92686 4.27131 1.49187 4.99281 1.50012C5.83056 1.51137 6.42681 2.13837 7.18131 2.93262C7.36806 3.12911 7.57056 3.34286 7.79631 3.56786C8.89131 4.66286 8.57931 5.55612 8.32881 6.27312C8.05581 7.05537 7.81956 7.73036 9.23406 9.14487C10.6501 10.5594 11.3251 10.3231 12.1043 10.0479C12.8221 9.79736 13.7131 9.48386 14.8096 10.5789C15.0316 10.8009 15.2423 11.0011 15.4366 11.1864C16.2346 11.9446 16.8646 12.5439 16.8751 13.3839C16.8841 14.1001 16.4491 14.8299 15.3751 15.9046L14.8996 15.5821L15.3016 15.9751C15.0638 16.2189 14.4308 16.8684 13.1926 16.8751H13.1716Z" fill="#334155"/>
</g>
</svg>
