<svg width="19" height="20" viewBox="0 0 19 20" fill="none" xmlns="http://www.w3.org/2000/svg">
<path d="M0.666808 9.53761C0.704396 9.2557 0.732587 8.9691 0.774874 8.68718C1.04269 6.86416 1.80855 5.27137 3.05365 3.9135C4.35514 2.49924 5.95263 1.56424 7.84613 1.19306C10.6793 0.638633 13.2306 1.27763 15.453 3.11945C17.1022 4.48671 18.1406 6.25336 18.5118 8.36769C19.0004 11.1492 18.3332 13.6488 16.5196 15.8101C15.1523 17.4358 13.3998 18.4366 11.3089 18.836C10.98 18.8971 10.6464 18.9205 10.3176 18.9628C10.2424 18.9722 10.1672 18.9863 10.092 19.0004C9.81011 19.0004 9.5282 19.0004 9.24629 19.0004C9.18991 18.991 9.13353 18.9722 9.07714 18.9675C7.68169 18.8783 6.3802 18.4742 5.16328 17.7835C5.08811 17.7412 4.97064 17.7271 4.89077 17.7506C3.78662 18.0795 2.68717 18.4225 1.58302 18.7608C1.55483 18.7702 1.52664 18.7749 1.49844 18.7843C1.35749 18.8407 1.23063 18.8172 1.12256 18.7138C1.0145 18.6104 1.0051 18.4836 1.04269 18.3426C1.35749 17.2103 1.66759 16.0779 1.98709 14.9456C2.02468 14.8093 2.01058 14.706 1.93541 14.5885C1.3246 13.5689 0.929925 12.4648 0.765477 11.2855C0.72319 10.9989 0.694999 10.7075 0.662109 10.4162C0.666808 10.1249 0.666808 9.83362 0.666808 9.53761ZM1.85083 17.9714C1.93541 17.948 1.97769 17.9386 2.01998 17.9245C2.95968 17.6378 3.89938 17.3559 4.83439 17.0552C5.03642 16.9895 5.20087 17.0129 5.37942 17.121C6.51646 17.8117 7.75216 18.2064 9.07714 18.2956C10.9425 18.4178 12.6903 18.009 14.2267 16.9425C17.0928 14.955 18.3285 12.1923 17.8822 8.73417C17.6331 6.81718 16.7357 5.18209 15.298 3.89C13.0615 1.88374 10.4538 1.22595 7.54543 1.96831C5.26195 2.54623 3.5423 3.93229 2.38646 5.99024C1.45146 7.65821 1.16485 9.45304 1.46086 11.3371C1.6347 12.4554 2.03877 13.4938 2.64018 14.4476C2.73415 14.5932 2.75295 14.7342 2.70126 14.8986C2.60729 15.2134 2.52272 15.5282 2.43345 15.843C2.24551 16.5384 2.05287 17.2385 1.85083 17.9714Z" fill="#334155" stroke="#334155" stroke-width="0.5"/>
<path d="M12.2386 15.4501C10.6599 15.4266 9.23626 14.9238 7.96767 14.0029C6.22452 12.739 4.97001 11.0899 4.17127 9.09769C3.739 8.02173 3.85647 6.96456 4.34511 5.93559C4.57064 5.45634 4.86195 5.01468 5.22843 4.6294C5.29891 4.55423 5.41167 4.48375 5.51034 4.47435C5.81575 4.43676 6.12585 4.42267 6.43595 4.41797C6.61919 4.41797 6.77424 4.50724 6.87291 4.67169C7.31927 5.36707 7.70925 6.09534 8.01465 6.8612C8.165 7.23238 8.11802 7.58946 7.90659 7.91836C7.74684 8.16738 7.5542 8.39761 7.35686 8.62314C7.27229 8.72181 7.2347 8.81108 7.30048 8.91914C7.48372 9.22925 7.64347 9.56284 7.87839 9.83535C8.69124 10.7892 9.68262 11.5315 10.7774 12.1376C11.0828 12.3068 11.1204 12.3115 11.3506 12.0531C11.6701 11.696 11.9755 11.3248 12.2668 10.9442C12.4782 10.6717 12.7508 10.5495 13.0796 10.6623C13.277 10.7281 13.4602 10.8361 13.6388 10.9442C14.2637 11.3248 14.8839 11.7148 15.5041 12.1C15.6544 12.194 15.7437 12.3115 15.7108 12.49C15.5981 13.1572 15.3913 13.7868 14.9637 14.3224C14.414 15.0131 13.667 15.3185 12.8165 15.4125C12.6239 15.4313 12.4313 15.436 12.2386 15.4501ZM12.2386 14.75C12.3796 14.75 12.5205 14.7594 12.6615 14.75C14.0053 14.6325 14.7053 13.9419 14.9825 12.7155C14.9919 12.6686 14.9638 12.584 14.9262 12.5605C14.306 12.1658 13.6764 11.7758 13.0515 11.3812C12.9105 11.2919 12.8259 11.3154 12.7273 11.461C12.4219 11.9074 12.0883 12.3256 11.6654 12.6733C11.3318 12.9458 10.9794 13.0256 10.5988 12.7954C10.0679 12.4759 9.52757 12.1705 9.02013 11.8134C8.27777 11.2872 7.60588 10.6764 7.07495 9.92462C6.85882 9.62392 6.68497 9.29972 6.6004 8.93324C6.53932 8.67012 6.56281 8.44929 6.78364 8.24726C6.97628 8.06871 7.13133 7.85258 7.29108 7.64115C7.44143 7.43911 7.47432 7.21828 7.34746 6.98336C7.05615 6.42893 6.76954 5.87451 6.49233 5.31069C6.39366 5.11335 6.26211 5.05697 6.04597 5.07106C5.81105 5.08986 5.61841 5.14154 5.49155 5.36237C5.3271 5.64428 5.12976 5.9121 4.98411 6.2034C4.56124 7.05853 4.43438 7.95125 4.80557 8.85336C5.51504 10.5965 6.5863 12.0765 8.06633 13.2512C9.27855 14.2097 10.6646 14.75 12.2386 14.75Z" fill="#334155" stroke="#334155" stroke-width="0.5"/>
</svg>
